# xmcd
#
# Track frame offsets:
#	150
#	32896
#	62411
#	75884
#	94948
#	117341
#	145288
#	172063
#	194337
#	219909
#	248760
#	278659
#	311841
#
# Disc length: 4446 seconds
#
# Revision: 0
# Processed by: cddbd v1.5.2PL0 Copyright (c) Steve Scherf et al.
# Submitted via: EasyCDDAExtractor 11.0.2.1
#
DISCID=b3115c0d
DTITLE=Various Artist - Generationext House2hard Vol. 4 [CD1]
DYEAR=2008
DGENRE=Electronic
TTITLE0=Darone - The Time Has Come (Marcovitch Remix)
TTITLE1=The Doppler Effect - Beauty Hides in the Deep (Envotion Remix)
TTITLE2=Sander Van Doorn feat. MC Pryme - By Any Demand (Peter Gelderblom Remi
TTITLE2=x)
TTITLE3=dousk - The Simplest Thing
TTITLE4=tyDi feat. Keshia - Fool
TTITLE5=tyDi - Meet Me In Kyoto (tyDi's Main Room Mix)
TTITLE6=Adam K and Soha - Long Distance
TTITLE7=S.N.M. - Itajai Vibes (Wize Remix)
TTITLE8=Sydney Blu - Give It Up For Me
TTITLE9=Steve Angello - Trix (Tocadisco Remix)
TTITLE10=tyDi - Kopi Susu (tyDi's Chocolate and Cream Mix)
TTITLE11=Bexta - Nightmare (tyDi Remix)
TTITLE12=Thomas Schwartz - Jupiter Calling
EXTD=
EXTT0=
EXTT1=
EXTT2=
EXTT3=
EXTT4=
EXTT5=
EXTT6=
EXTT7=
EXTT8=
EXTT9=
EXTT10=
EXTT11=
EXTT12=
PLAYORDER=
